HIERARCHY
ROOT Hips
{
	OFFSET -0.001795 -0.223333 0.028219
	CHANNELS 6 Xposition Yposition Zposition Zrotation Yrotation Xrotation 
	JOINT LeftUpLeg
	{
		OFFSET 0.069520 -0.091406 -0.006815
		CHANNELS 3 Zrotation Yrotation Xrotation
		JOINT LeftLeg
		{
			OFFSET 0.034277 -0.375199 -0.004496
			CHANNELS 3 Zrotation Yrotation Xrotation
			JOINT LeftFoot
			{
				OFFSET -0.013596 -0.397961 -0.043693
				CHANNELS 3 Zrotation Yrotation Xrotation
				JOINT LeftToe
				{
					OFFSET 0.026358 -0.055791 0.119288
					CHANNELS 3 Zrotation Yrotation Xrotation
					End Site
					{
						OFFSET 0.000000 0.000000 0.000000
					}
				}
			}
		}
	}
	JOINT RightUpLeg
	{
		OFFSET -0.067670 -0.090522 -0.004320
		CHANNELS 3 Zrotation Yrotation Xrotation
		JOINT RightLeg
		{
			OFFSET -0.038290 -0.382569 -0.008850
			CHANNELS 3 Zrotation Yrotation Xrotation
			JOINT RightFoot
			{
				OFFSET 0.015774 -0.398415 -0.042312
				CHANNELS 3 Zrotation Yrotation Xrotation
				JOINT RightToe
				{
					OFFSET -0.025372 -0.048144 0.123348
					CHANNELS 3 Zrotation Yrotation Xrotation
					End Site
					{
						OFFSET 0.000000 0.000000 0.000000
					}
				}
			}
		}
	}
	JOINT Spine
	{
		OFFSET -0.002533 0.108963 -0.026696
		CHANNELS 3 Zrotation Yrotation Xrotation
		JOINT Spine1
		{
			OFFSET 0.005487 0.135180 0.001092
			CHANNELS 3 Zrotation Yrotation Xrotation
			JOINT Spine2
			{
				OFFSET 0.001457 0.052922 0.025425
				CHANNELS 3 Zrotation Yrotation Xrotation
				JOINT Neck
				{
					OFFSET -0.002778 0.213870 -0.042857
					CHANNELS 3 Zrotation Yrotation Xrotation
					JOINT Head
					{
						OFFSET 0.005152 0.064970 0.051349
						CHANNELS 3 Zrotation Yrotation Xrotation
						End Site
						{
							OFFSET 0.000000 0.000000 0.000000
						}
					}
				}
				JOINT LeftShoulder
				{
					OFFSET 0.078845 0.121749 -0.034090
					CHANNELS 3 Zrotation Yrotation Xrotation
					JOINT LeftArm
					{
						OFFSET 0.090977 0.030469 -0.008868
						CHANNELS 3 Zrotation Yrotation Xrotation
						JOINT LeftForeArm
						{
							OFFSET 0.259612 -0.012772 -0.027456
							CHANNELS 3 Zrotation Yrotation Xrotation
							JOINT LeftHand
							{
								OFFSET 0.249234 0.008986 -0.001171
								CHANNELS 3 Zrotation Yrotation Xrotation
								End Site
								{
									OFFSET 0.000000 0.000000 0.000000
								}
							}
						}
					}
				}
				JOINT RightShoulder
				{
					OFFSET -0.081759 0.118833 -0.038615
					CHANNELS 3 Zrotation Yrotation Xrotation
					JOINT RightArm
					{
						OFFSET -0.096012 0.032551 -0.009143
						CHANNELS 3 Zrotation Yrotation Xrotation
						JOINT RightForeArm
						{
							OFFSET -0.253742 -0.013329 -0.021401
							CHANNELS 3 Zrotation Yrotation Xrotation
							JOINT RightHand
							{
								OFFSET -0.255298 0.007772 -0.005559
								CHANNELS 3 Zrotation Yrotation Xrotation
								End Site
								{
									OFFSET 0.000000 0.000000 0.000000
								}
							}
						}
					}
				}
			}
		}
	}
}
MOTION
Frames: 5
Frame Time: 0.050000
0.000000 0.983062 0.000000 -9.087662 -22.282262 13.054282 6.097391 0.392808 -22.582591 2.817147 0.166526 27.222567 1.185974 3.068232 4.700634 0.000000 0.000000 0.000000 -5.078500 1.080103 -9.730967 13.982081 3.828638 82.867815 -2.660574 -8.057092 3.560503 0.000000 0.000000 0.000000 -2.661428 0.175574 11.512890 -1.649300 1.001692 -30.006817 3.187070 10.610677 28.455678 8.059657 -2.283066 -34.387559 0.000000 0.000000 0.000000 -10.485408 -1.081372 0.535637 -56.615982 -14.059784 -2.173537 -0.620097 -41.847458 3.544980 0.000000 0.000000 0.000000 14.502299 0.296279 -1.395961 69.740944 18.627889 1.713794 6.121571 50.401320 5.622556 0.000000 0.000000 0.000000 
-0.008246 0.989417 0.010264 -10.879589 -21.336248 12.420158 9.480005 0.967443 -20.440189 1.396319 0.640977 27.303146 -0.232360 -0.421806 0.475594 0.000000 0.000000 0.000000 -5.557863 1.554737 -14.999058 15.032059 2.575663 91.473988 -1.101604 -6.925756 11.721669 0.000000 0.000000 0.000000 -1.632650 0.000139 12.277828 -0.029514 0.758420 -30.320232 2.137319 11.603502 28.335269 8.705871 -2.126924 -36.199543 0.000000 0.000000 0.000000 -12.014240 -0.820121 0.194097 -54.809295 -11.863950 -3.476038 -3.323503 -41.066366 4.237083 0.000000 0.000000 0.000000 18.144034 -0.798520 -2.045096 66.457664 15.809641 -0.094299 10.257850 48.572976 7.376376 0.000000 0.000000 0.000000 
-0.017734 0.993102 0.020606 -11.077087 -18.897627 10.750855 9.695614 0.607948 -16.567824 1.473679 0.302252 26.145189 0.610582 0.996910 -1.309469 0.000000 0.000000 0.000000 -5.972381 1.454480 -14.751921 14.005409 1.918510 89.263477 -3.742209 -10.937523 6.001977 0.000000 0.000000 0.000000 0.560255 -0.386515 12.617203 -2.077562 0.965963 -28.305545 1.686307 11.383358 26.572029 8.605189 -1.966787 -35.338931 0.000000 0.000000 0.000000 -12.760859 -2.220624 0.615255 -53.164253 -13.425486 -2.642590 -3.923876 -37.667656 3.727755 0.000000 0.000000 0.000000 17.861611 -2.413477 -2.616936 64.533322 13.582572 -1.163244 12.525128 50.185764 8.805575 0.000000 0.000000 0.000000 
-0.028610 0.996833 0.030028 -11.152278 -19.753343 10.469885 10.852353 0.744661 -14.564694 1.878497 0.239180 26.324231 -0.395528 -1.169841 -1.327762 0.000000 0.000000 0.000000 -8.074228 1.696863 -18.133438 11.056869 5.013427 84.067701 -2.969599 -8.877312 3.975396 0.000000 0.000000 0.000000 0.456682 -0.359679 12.517882 -1.763467 0.993549 -29.869142 0.872986 10.986756 27.299557 10.346133 -2.865572 -35.773359 0.000000 0.000000 0.000000 -11.905216 -0.557341 -0.020939 -54.383890 -11.487974 -3.555019 -4.967981 -36.733630 4.085331 0.000000 0.000000 0.000000 18.336860 -5.025433 -4.302094 63.677546 10.914583 -2.804408 19.127242 50.081913 11.689414 0.000000 0.000000 0.000000 
-0.041004 0.999327 0.038840 -10.729557 -18.795619 8.642474 12.297278 0.896805 -13.126297 1.677843 0.385536 29.018209 -1.064267 -4.162884 -5.933545 0.000000 0.000000 0.000000 -10.241102 1.575799 -18.951000 7.932262 5.658755 72.670981 -1.294508 -6.151478 6.165364 0.000000 0.000000 0.000000 0.347060 -0.354295 12.169041 -2.343650 1.058781 -29.000290 0.551191 10.058637 26.741098 11.452580 -3.630509 -34.373655 0.000000 0.000000 0.000000 -10.906064 0.535737 -0.493806 -55.651786 -9.386695 -4.453740 -6.929286 -33.974419 4.332775 0.000000 0.000000 0.000000 17.536308 -6.415114 -4.982820 63.411700 7.656587 -4.524660 23.581880 51.112528 14.037013 0.000000 0.000000 0.000000 
